<svg xmlns="http://www.w3.org/2000/svg" width="998.170" height="182.021" viewBox="0 0 998.170 182.021" fill="none">
  <path d="M 84.93 182.01 C 72.8 182.01 61.55 179.83 51.2 175.46 C 40.85 171.09 31.79 165.03 24.02 157.26 C 16.42 149.33 10.51 140.03 6.31 129.35 C 2.1 118.67 0 107.02 0 94.41 C 0 81.8 2.1 70.14 6.31 59.47 C 10.52 48.79 16.42 39.57 24.02 31.81 C 31.79 23.88 40.84 17.74 51.2 13.37 C 61.55 9 72.8 6.82 84.93 6.82 C 97.06 6.82 108.55 9 118.9 13.37 C 129.25 17.74 138.23 23.89 145.84 31.81 C 153.44 39.74 159.35 49.04 163.55 59.72 C 167.76 70.24 169.86 81.8 169.86 94.42 C 169.86 107.04 167.76 118.44 163.55 129.12 C 159.34 139.8 153.44 149.1 145.84 157.03 C 138.24 164.96 129.26 171.1 118.9 175.47 C 108.55 179.84 97.22 182.02 84.93 182.02 L 84.93 182.01 Z M 84.93 151.92 C 92.69 151.92 99.73 150.55 106.04 147.79 C 112.51 144.88 118.09 140.83 122.78 135.66 C 127.47 130.32 131.11 124.17 133.7 117.22 C 136.45 110.26 137.83 102.66 137.83 94.41 C 137.83 86.16 136.45 78.56 133.7 71.6 C 131.11 64.64 127.47 58.58 122.78 53.4 C 118.09 48.06 112.51 44.02 106.04 41.27 C 99.73 38.36 92.69 36.9 84.93 36.9 C 77.17 36.9 70.29 38.36 63.82 41.27 C 57.35 44.02 51.77 47.98 47.08 53.16 C 42.39 58.34 38.75 64.4 36.16 71.36 C 33.57 78.32 32.28 86 32.28 94.41 C 32.28 102.82 33.57 110.35 36.16 117.46 C 38.75 124.42 42.39 130.48 47.08 135.66 C 51.77 140.84 57.35 144.88 63.82 147.79 C 70.29 150.54 77.33 151.92 84.93 151.92 Z" fill="currentColor" fill-rule="nonzero"></path>
  <path d="M 198.32 179.58 C 194.57 179.58 191.521 176.54 191.521 172.79 L 191.521 59.94 C 191.521 55.39 195.21 51.7 199.76 51.7 L 212.54 51.7 C 217.031 51.7 220.7 55.3 220.78 59.79 L 221.091 76.57 C 221.111 77.39 220.661 78.14 219.931 78.52 C 218.261 79.39 216.441 77.87 217.211 76.15 C 219.001 72.15 221.59 68.45 225 65.04 C 229.69 60.19 235.271 56.3 241.741 53.39 C 248.211 50.48 254.84 49.02 261.641 49.02 C 271.35 49.02 279.441 50.96 285.911 54.84 C 292.541 58.72 297.48 64.55 300.711 72.31 C 304.111 80.07 305.81 89.78 305.81 101.43 L 305.81 171.32 C 305.81 175.87 302.12 179.56 297.57 179.56 L 284.211 179.56 C 279.661 179.56 275.971 175.87 275.971 171.32 L 275.971 103.609 C 275.971 97.139 275.08 91.8 273.3 87.59 C 271.52 83.22 268.77 80.07 265.05 78.13 C 261.33 76.03 256.801 75.06 251.461 75.22 C 247.091 75.22 243.051 75.95 239.331 77.4 C 235.771 78.69 232.621 80.64 229.871 83.22 C 227.281 85.65 225.18 88.48 223.56 91.71 C 222.1 94.94 221.38 98.5 221.38 102.39 L 221.38 171.31 C 221.38 175.86 217.691 179.549 213.141 179.549 L 198.331 179.549 L 198.32 179.58 Z" fill="currentColor" fill-rule="nonzero"></path>
  <path d="M 395.21 182.009 C 381.78 182.009 369.89 179.179 359.54 173.519 C 349.35 167.859 341.34 160.169 335.52 150.469 C 329.86 140.599 327.03 129.359 327.03 116.739 C 327.03 106.709 328.65 97.569 331.88 89.319 C 335.12 81.069 339.56 73.949 345.23 67.969 C 351.05 61.819 357.93 57.129 365.86 53.899 C 373.95 50.499 382.77 48.799 392.31 48.799 C 400.72 48.799 408.57 50.419 415.85 53.649 C 423.13 56.889 429.44 61.329 434.78 66.999 C 440.12 72.499 444.16 79.129 446.91 86.899 C 449.82 94.499 451.2 102.829 451.04 111.889 L 450.99 114.269 C 450.89 118.749 447.23 122.319 442.75 122.319 L 353.48 122.319 C 349.77 122.319 346.51 119.839 345.53 116.249 L 344.46 112.349 C 343.02 107.099 346.97 101.929 352.41 101.929 L 423.1 101.929 C 424.13 101.929 424.66 103.159 423.95 103.899 C 423.22 104.669 421.93 104.159 421.93 103.099 L 421.93 100.719 C 421.44 95.699 419.83 91.339 417.08 87.619 C 414.33 83.739 410.77 80.739 406.4 78.639 C 402.19 76.379 397.5 75.239 392.33 75.239 C 384.4 75.239 377.69 76.779 372.19 79.849 C 366.85 82.919 362.81 87.369 360.06 93.199 C 357.31 98.859 355.93 105.979 355.93 114.549 C 355.93 123.119 357.63 129.999 361.03 136.149 C 364.59 142.299 369.52 147.069 375.83 150.469 C 382.3 153.709 389.82 155.319 398.4 155.319 C 404.39 155.319 409.89 154.349 414.9 152.409 C 417.81 151.279 420.85 149.639 424.03 147.479 C 428.03 144.759 433.58 145.359 436.41 149.289 L 441.72 156.689 C 444.14 160.069 443.7 164.769 440.35 167.229 C 437.44 169.369 434.29 171.299 430.92 173.039 C 425.42 175.789 419.6 177.969 413.45 179.589 C 407.3 181.209 401.24 182.019 395.25 182.019 L 395.21 182.009 Z" fill="currentColor" fill-rule="nonzero"></path>
  <path d="M 482.08 179.581 C 477.53 179.581 473.84 175.891 473.84 171.341 L 473.84 17.961 C 473.84 13.411 477.53 9.721 482.08 9.721 L 535.72 9.721 C 546.72 9.721 556.99 11.821 566.54 16.031 C 576.09 20.241 584.42 26.141 591.53 33.751 C 598.81 41.191 604.47 50.091 608.52 60.441 C 612.73 70.791 614.83 82.201 614.83 94.661 C 614.83 107.121 612.73 118.361 608.52 128.881 C 604.48 139.231 598.81 148.211 591.53 155.821 C 584.41 163.261 576.08 169.091 566.54 173.291 C 557 177.501 546.72 179.601 535.72 179.601 L 482.08 179.601 L 482.08 179.581 Z M 485.96 168.541 C 485.96 169.561 484.68 170.021 484.03 169.231 C 483.44 168.521 483.95 167.451 484.87 167.451 L 534.49 167.451 C 543.71 167.451 552.37 165.671 560.46 162.111 C 568.71 158.551 575.91 153.541 582.06 147.061 C 588.21 140.431 593.06 132.741 596.62 124.011 C 600.18 115.111 601.96 105.331 601.96 94.651 C 601.96 83.971 600.18 74.271 596.62 65.531 C 593.06 56.631 588.21 48.951 582.06 42.481 C 575.91 35.851 568.71 30.751 560.46 27.191 C 552.37 23.631 543.72 21.851 534.49 21.851 L 484.83 21.851 C 483.79 21.851 483.3 20.561 484.08 19.871 C 484.81 19.221 485.96 19.741 485.96 20.721 L 485.96 168.541 Z" fill="currentColor" fill-rule="nonzero"></path>
  <path d="M 692.9 182.01 C 681.41 182.01 671.14 179.181 662.08 173.521 C 653.02 167.861 645.82 160.091 640.48 150.221 C 635.3 140.351 632.71 129.11 632.71 116.49 C 632.71 103.87 635.38 92.391 640.72 82.521 C 646.22 72.651 653.5 64.891 662.56 59.221 C 671.62 53.561 681.73 50.73 692.89 50.73 C 699.36 50.73 705.5 51.701 711.34 53.641 C 717.16 55.581 722.42 58.331 727.11 61.891 C 731.8 65.291 735.85 69.331 739.25 74.021 C 741.69 77.401 743.64 80.991 745.07 84.791 C 745.67 86.361 743.95 87.641 742.55 86.721 C 742 86.371 741.69 85.76 741.72 85.12 L 742.68 59.11 C 742.8 55.92 745.42 53.401 748.62 53.401 C 751.89 53.401 754.55 56.061 754.55 59.331 L 754.55 173.521 C 754.55 176.871 751.84 179.591 748.48 179.591 C 745.13 179.591 742.42 176.871 742.42 173.521 L 742.42 148.55 C 742.42 148.22 742.54 147.901 742.76 147.661 C 743.7 146.611 745.25 147.49 744.71 148.8 C 743.32 152.17 741.51 155.39 739.27 158.48 C 735.87 163.17 731.82 167.3 727.13 170.86 C 722.44 174.42 717.19 177.17 711.36 179.11 C 705.53 181.05 699.38 182.021 692.91 182.021 L 692.9 182.01 Z M 694.6 169.88 C 703.82 169.88 712.07 167.611 719.36 163.081 C 726.8 158.391 732.62 152.081 736.83 144.151 C 741.2 136.061 743.38 126.76 743.38 116.24 C 743.38 105.72 741.28 96.75 737.07 88.82 C 732.87 80.73 727.03 74.421 719.59 69.891 C 712.31 65.201 703.98 62.851 694.6 62.851 C 685.22 62.851 676.56 65.201 669.12 69.891 C 661.84 74.421 656.1 80.73 651.89 88.82 C 647.68 96.75 645.58 105.89 645.58 116.24 C 645.58 126.59 647.6 135.571 651.65 143.661 C 655.86 151.751 661.6 158.141 668.88 162.831 C 676.32 167.521 684.9 169.87 694.6 169.87 L 694.6 169.88 Z" fill="currentColor" fill-rule="nonzero"></path>
  <path d="M 829.021 182.011 C 818.011 182.011 808.231 179.911 799.661 175.701 C 793.161 172.391 787.821 168.571 783.651 164.231 C 781.431 161.931 781.861 158.311 784.271 156.221 C 786.951 153.891 791.011 154.371 793.551 156.851 C 797.141 160.361 801.361 163.251 806.201 165.501 C 813.161 168.571 821.011 170.111 829.751 170.111 C 834.601 170.111 839.051 169.621 843.091 168.651 C 847.131 167.521 850.531 165.981 853.281 164.041 C 856.191 162.101 858.451 159.751 860.071 157.001 C 861.691 154.091 862.501 150.851 862.501 147.291 C 862.501 140.981 859.501 135.641 853.511 131.271 C 850.761 129.331 847.291 127.551 843.081 125.931 C 838.881 124.311 833.941 122.691 828.271 121.081 C 819.701 118.491 812.421 116.071 806.431 113.801 C 800.441 111.531 795.671 108.701 792.121 105.311 C 789.521 102.561 787.591 99.651 786.291 96.571 C 785.001 93.341 784.351 89.861 784.351 86.141 C 784.351 80.961 785.401 76.271 787.501 72.071 C 789.601 67.701 792.601 63.901 796.481 60.671 C 800.361 57.431 804.901 55.011 810.071 53.391 C 815.241 51.611 820.991 50.721 827.301 50.721 C 833.611 50.721 839.191 51.611 845.011 53.391 C 850.831 55.011 856.251 57.351 861.271 60.431 C 864.601 62.471 867.651 64.731 870.411 67.201 C 872.751 69.301 872.741 72.891 870.611 75.211 C 868.201 77.831 864.081 77.801 861.441 75.411 C 859.531 73.701 857.531 72.101 855.451 70.621 C 851.731 67.871 847.601 65.771 843.071 64.311 C 838.541 62.691 833.521 61.881 828.021 61.881 C 823.651 61.881 819.531 62.451 815.641 63.581 C 811.921 64.711 808.681 66.411 805.931 68.681 C 803.181 70.781 800.991 73.291 799.381 76.201 C 797.931 78.951 797.201 82.021 797.201 85.421 C 797.201 88.011 797.681 90.351 798.651 92.461 C 799.631 94.401 801.161 96.261 803.271 98.041 C 806.021 100.311 809.661 102.251 814.181 103.861 C 818.881 105.481 824.621 107.261 831.411 109.201 C 837.561 110.821 842.981 112.431 847.671 114.051 C 852.361 115.671 856.411 117.611 859.811 119.871 C 864.981 123.111 868.791 126.911 871.211 131.281 C 873.811 135.651 875.091 140.661 875.091 146.331 C 875.091 153.291 873.151 159.431 869.271 164.771 C 865.391 170.111 859.961 174.311 853.011 177.391 C 846.051 180.461 838.051 182.001 828.991 182.001 L 829.021 182.011 Z" fill="currentColor" fill-rule="nonzero"></path>
  <path d="M 902.31 179.58 C 899.9 179.58 897.95 177.63 897.95 175.21 L 897.95 6.07 C 897.95 2.72 900.66 0 904.01 0 C 907.36 0 910.08 2.72 910.08 6.07 L 910.08 82.26 C 910.08 82.43 910.03 82.59 909.95 82.73 C 909.42 83.56 908.3 83.07 908.63 82.14 C 910.57 76.65 913.48 71.85 917.36 67.72 C 922.38 62.22 928.2 58.01 934.84 55.1 C 941.63 52.19 948.43 50.73 955.22 50.73 C 964.93 50.73 972.93 52.59 979.24 56.31 C 985.71 60.03 990.48 65.77 993.56 73.54 C 996.63 81.31 998.17 91.17 998.17 103.15 L 998.17 173.52 C 998.17 176.87 995.46 179.59 992.1 179.59 C 988.75 179.59 986.04 176.87 986.04 173.52 L 986.04 103.63 C 986.04 94.25 984.82 86.56 982.39 80.58 C 979.97 74.43 976.25 69.9 971.23 66.99 C 966.38 63.92 960.15 62.38 952.55 62.38 C 946.56 62.38 940.98 63.51 935.8 65.78 C 930.63 67.88 926.09 70.79 922.21 74.52 C 918.49 78.24 915.5 82.53 913.23 87.38 C 911.13 92.07 910.08 97.09 910.08 102.43 L 910.08 173.53 C 910.08 176.88 907.36 179.6 904.01 179.6 L 902.31 179.6 L 902.31 179.58 Z" fill="currentColor" fill-rule="nonzero"></path>
</svg>